<svg id="Layer_1" data-name="Layer 1" xmlns="http://www.w3.org/2000/svg" viewBox="0 0 24 24"><defs><style>.cls-1{fill:#4da659;}</style></defs><rect width="24" height="24" rx="3.77"/><path class="cls-1" d="M11.86,4.69a5,5,0,0,0-3.48-1.1A4.51,4.51,0,0,0,4.58,6C4.34,6.68,4,8,4,8A15.61,15.61,0,0,0,2.57,9.08,5.14,5.14,0,0,0,1,11.47a4.51,4.51,0,0,0-.12,1.59,4.58,4.58,0,0,0,.56,1.78,3.79,3.79,0,0,0,1.24,1.61c.66.44,1.08.3,1.43.77s.08.5.29,1.22a5,5,0,0,0,.62,1.31,6.19,6.19,0,0,0,1.27,1.32,4,4,0,0,0,1.06.74,3.46,3.46,0,0,0,1.9.14,3.09,3.09,0,0,0,1-.33,10,10,0,0,0,1-.73c.69-.51.83-.51.93-.49.25.06.25.29.62.67a2.7,2.7,0,0,0,1.12.67,3.26,3.26,0,0,0,1.12.13,4.67,4.67,0,0,0,2.12-.31,3.27,3.27,0,0,0,1.25-.92,4.48,4.48,0,0,0,.68-1.22c.06-.16.14-.51.31-1.21s.18-.77.25-.87c.3-.39.72-.27,1.37-.61a3,3,0,0,0,1-.85,4.84,4.84,0,0,0,1-2.51,5.69,5.69,0,0,0,0-2.24A3,3,0,0,0,22.56,10,5.75,5.75,0,0,0,20.88,8.6h0c-.56-.24-.9-.19-1.18-.55s-.12-.44-.43-1.4A6.93,6.93,0,0,0,19,6a5.36,5.36,0,0,0-.61-1,4.06,4.06,0,0,0-.81-.79,3.71,3.71,0,0,0-1.68-.61,4.85,4.85,0,0,0-2,.12A5.43,5.43,0,0,0,11.86,4.69Z" transform="translate(0 -0.33)"/><path class="cls-1" d="M10.16,14" transform="translate(0 -0.33)"/><path class="cls-1" d="M6.67,27.78" transform="translate(0 -0.33)"/></svg>